<?xml version="1.0" encoding="UTF-8" standalone="no"?>
<!-- Created with Inkscape (http://www.inkscape.org/) -->

<svg
   xmlns:dc="http://purl.org/dc/elements/1.1/"
   xmlns:cc="http://creativecommons.org/ns#"
   xmlns:rdf="http://www.w3.org/1999/02/22-rdf-syntax-ns#"
   xmlns:svg="http://www.w3.org/2000/svg"
   xmlns="http://www.w3.org/2000/svg"
   xmlns:sodipodi="http://sodipodi.sourceforge.net/DTD/sodipodi-0.dtd"
   xmlns:inkscape="http://www.inkscape.org/namespaces/inkscape"
   width="154.06621"
   height="43.253502"
   id="svg3860"
   version="1.1"
   inkscape:version="0.48.5 r10040"
   sodipodi:docname="logo.svg">
  <defs
     id="defs3862" />
  <sodipodi:namedview
     id="base"
     pagecolor="#ffffff"
     bordercolor="#666666"
     borderopacity="1.0"
     inkscape:pageopacity="0.0"
     inkscape:pageshadow="2"
     inkscape:zoom="3.959798"
     inkscape:cx="58.027963"
     inkscape:cy="2.9298364"
     inkscape:document-units="px"
     inkscape:current-layer="layer1"
     showgrid="false"
     fit-margin-top="0"
     fit-margin-left="0"
     fit-margin-right="0"
     fit-margin-bottom="0"
     inkscape:window-width="1276"
     inkscape:window-height="1059"
     inkscape:window-x="0"
     inkscape:window-y="17"
     inkscape:window-maximized="0" />
  <metadata
     id="metadata3865">
    <rdf:RDF>
      <cc:Work
         rdf:about="">
        <dc:format>image/svg+xml</dc:format>
        <dc:type
           rdf:resource="http://purl.org/dc/dcmitype/StillImage" />
        <dc:title></dc:title>
      </cc:Work>
    </rdf:RDF>
  </metadata>
  <g
     inkscape:label="Layer 1"
     inkscape:groupmode="layer"
     id="layer1"
     transform="translate(-192.96689,-387.02648)">
    <path
       inkscape:connector-curvature="0"
       id="path4411"
       style="font-size:40px;font-style:normal;font-variant:normal;font-weight:normal;font-stretch:normal;line-height:125%;letter-spacing:0px;word-spacing:0px;fill:#fdf8ec;fill-opacity:1;stroke:none;font-family:Dosis;-inkscape-font-specification:Dosis"
       d="m 246.27815,423.69076 0,-24.42478 c 0,-2.20437 0.77888,-4.10015 2.33666,-5.68735 1.55778,-1.61654 3.39477,-2.42481 5.51101,-2.42485 l 1.1022,0 c 0.35269,4e-5 0.64662,0.1323 0.88176,0.3968 0.23512,0.26456 0.35269,0.57317 0.3527,0.92584 -1e-5,0.35274 -0.11758,0.66136 -0.3527,0.92585 -0.23514,0.23517 -0.52907,0.35274 -0.88176,0.35271 l -0.7495,0 c -1.499,3e-5 -2.76285,0.52909 -3.79157,1.58717 -0.99933,1.02875 -1.5137,2.26321 -1.54308,3.70339 l 0,4.89378 6.30459,0 c 0.29391,2e-5 0.52905,0.11759 0.70541,0.3527 0.20572,0.23515 0.3086,0.49968 0.30861,0.79358 -1e-5,0.35273 -0.10283,0.64664 -0.30861,0.88177 -0.17636,0.23515 -0.4115,0.35272 -0.70541,0.3527 l -6.30459,0 0,17.37069 c -1e-5,0.32331 -0.14697,0.58783 -0.44088,0.79358 -0.29392,0.20575 -0.64663,0.30862 -1.05811,0.30862 -0.3821,0 -0.70541,-0.10284 -0.96994,-0.30862 -0.26453,-0.20575 -0.39679,-0.47027 -0.39679,-0.79358" />
    <path
       inkscape:connector-curvature="0"
       id="path4413"
       style="font-size:40px;font-style:normal;font-variant:normal;font-weight:normal;font-stretch:normal;line-height:125%;letter-spacing:0px;word-spacing:0px;fill:#fdf8ec;fill-opacity:1;stroke:none;font-family:Dosis;-inkscape-font-specification:Dosis"
       d="m 258.09856,416.72485 0,-4.8056 c 0,-2.23378 0.82298,-4.15896 2.46893,-5.77553 1.64595,-1.64593 3.60052,-2.46891 5.86371,-2.46893 2.26318,2e-5 4.23244,0.8083 5.9078,2.42484 1.67533,1.61658 2.513,3.55645 2.51301,5.81962 l 0,4.8056 c -1e-5,2.20441 -0.85237,4.15898 -2.5571,5.86371 -1.67536,1.67534 -3.62992,2.51301 -5.86371,2.51301 -2.2044,0 -4.14428,-0.83767 -5.81962,-2.51301 -1.67535,-1.70473 -2.51302,-3.6593 -2.51302,-5.86371 m 2.86573,0 c -1e-5,1.499 0.52905,2.83633 1.58716,4.01201 1.0875,1.14629 2.38076,1.71943 3.87975,1.71943 1.52838,0 2.83633,-0.57314 3.92383,-1.71943 1.0875,-1.17568 1.63125,-2.51301 1.63127,-4.01201 l 0,-4.8056 c -2e-5,-1.44019 -0.55847,-2.73345 -1.67535,-3.87975 -1.08751,-1.14626 -2.38077,-1.71941 -3.87975,-1.71943 -1.49899,2e-5 -2.79225,0.57317 -3.87975,1.71943 -1.05811,1.1463 -1.58717,2.43956 -1.58716,3.87975 l 0,4.8056" />
    <path
       inkscape:connector-curvature="0"
       id="path4415"
       style="font-size:40px;font-style:normal;font-variant:normal;font-weight:normal;font-stretch:normal;line-height:125%;letter-spacing:0px;word-spacing:0px;fill:#fdf8ec;fill-opacity:1;stroke:none;font-family:Dosis;-inkscape-font-specification:Dosis"
       d="m 279.6025,423.64667 0,-18.64924 c 0,-0.2939 0.13226,-0.54373 0.39679,-0.7495 0.26453,-0.20572 0.60254,-0.30859 1.01403,-0.30861 0.3821,2e-5 0.70541,0.10294 0.96993,0.30861 0.26453,0.20577 0.3968,0.4556 0.39681,0.7495 l 0,2.16031 c 0.52904,-0.96991 1.30794,-1.79289 2.33666,-2.46893 1.02871,-0.67599 2.21909,-1.014 3.57112,-1.01402 l 1.54309,0 c 0.29391,2e-5 0.55844,0.13228 0.79358,0.39679 0.23513,0.26455 0.35269,0.57317 0.3527,0.92585 -1e-5,0.35272 -0.11757,0.66134 -0.3527,0.92585 -0.23514,0.26455 -0.49967,0.39681 -0.79358,0.39679 l -1.54309,0 c -1.52838,2e-5 -2.88042,0.60255 -4.05608,1.80761 -1.1757,1.17569 -1.76354,2.71878 -1.76354,4.62924 l 0,10.88975 c 0,0.29392 -0.14695,0.55845 -0.44087,0.79358 -0.26454,0.23514 -0.60255,0.35271 -1.01403,0.35271 -0.3821,0 -0.7201,-0.11757 -1.01403,-0.35271 -0.26453,-0.23513 -0.39679,-0.49966 -0.39679,-0.79358" />
    <path
       inkscape:connector-curvature="0"
       id="path4417"
       style="font-size:40px;font-style:normal;font-variant:normal;font-weight:normal;font-stretch:normal;line-height:125%;letter-spacing:0px;word-spacing:0px;fill:#fdf8ec;fill-opacity:1;stroke:none;font-family:Dosis;-inkscape-font-specification:Dosis"
       d="m 294.06683,418.31202 0,-23.2344 c 0,-0.29389 0.14695,-0.54373 0.44088,-0.7495 0.29391,-0.20571 0.61723,-0.30858 0.96993,-0.30861 0.38209,3e-5 0.72011,0.10294 1.01403,0.30861 0.29391,0.20577 0.44087,0.45561 0.44088,0.7495 l 0,8.8617 5.68736,0 c 0.29391,2e-5 0.52904,0.11759 0.70541,0.3527 0.20573,0.23515 0.3086,0.51437 0.30861,0.83767 -1e-5,0.32333 -0.10283,0.60255 -0.30861,0.83768 -0.17637,0.23515 -0.4115,0.35272 -0.70541,0.3527 l -5.68736,0 0,11.99195 c -10e-6,1.44021 0.29391,2.45423 0.88176,3.04207 0.61722,0.55845 1.69004,0.83767 3.21843,0.83767 l 1.23446,0 c 0.38209,0 0.69071,0.13227 0.92585,0.3968 0.26452,0.23514 0.39678,0.52905 0.39679,0.88176 -10e-6,0.3527 -0.13227,0.66132 -0.39679,0.92585 -0.23514,0.26452 -0.54376,0.39679 -0.92585,0.39679 l -1.23446,0 c -4.64395,0 -6.96591,-2.16032 -6.96591,-6.48094" />
    <path
       inkscape:connector-curvature="0"
       id="path4419"
       style="font-size:40px;font-style:normal;font-variant:normal;font-weight:normal;font-stretch:normal;line-height:125%;letter-spacing:0px;word-spacing:0px;fill:#fdf8ec;fill-opacity:1;stroke:none;font-family:Dosis;-inkscape-font-specification:Dosis"
       d="m 307.0232,416.81302 0,-11.7715 c 0,-0.26451 0.13226,-0.51435 0.39679,-0.7495 0.29392,-0.23511 0.64662,-0.35268 1.05812,-0.3527 0.3527,2e-5 0.67601,0.11759 0.96993,0.3527 0.29392,0.23515 0.44088,0.48499 0.44088,0.7495 l 0,11.7715 c 0,1.46961 0.54375,2.77755 1.63126,3.92384 1.0875,1.14629 2.38074,1.71943 3.87975,1.71943 1.49898,0 2.79223,-0.57314 3.87975,-1.71943 1.08748,-1.14629 1.63124,-2.45423 1.63125,-3.92384 l 0,-11.81559 c -1e-5,-0.2939 0.14695,-0.54373 0.44088,-0.7495 0.29391,-0.20572 0.63192,-0.30859 1.01403,-0.30861 0.38208,2e-5 0.70538,0.10294 0.96993,0.30861 0.29391,0.20577 0.44086,0.4556 0.44089,0.7495 l 0,11.81559 c -3e-5,2.20442 -0.8377,4.14428 -2.51302,5.81962 -1.64597,1.64595 -3.60054,2.46893 -5.86371,2.46893 -2.29259,0 -4.26185,-0.82298 -5.9078,-2.46893 -1.64596,-1.67534 -2.46893,-3.6152 -2.46893,-5.81962" />
    <path
       inkscape:connector-curvature="0"
       id="path4421"
       style="font-size:40px;font-style:normal;font-variant:normal;font-weight:normal;font-stretch:normal;line-height:125%;letter-spacing:0px;word-spacing:0px;fill:#fdf8ec;fill-opacity:1;stroke:none;font-family:Dosis;-inkscape-font-specification:Dosis"
       d="m 329.11544,397.23793 c -0.3821,-0.38206 -0.57314,-0.82294 -0.57314,-1.32264 0,-0.49964 0.19104,-0.92581 0.57314,-1.27855 0.38209,-0.35267 0.85237,-0.52902 1.41082,-0.52906 0.52906,4e-5 0.96994,0.17639 1.32264,0.52906 0.38209,0.35274 0.57313,0.77891 0.57314,1.27855 -10e-6,0.4997 -0.19105,0.94058 -0.57314,1.32264 -0.3527,0.35273 -0.79358,0.52908 -1.32264,0.52906 -0.55845,2e-5 -1.02873,-0.17633 -1.41082,-0.52906 m 0,26.40874 0,-18.64924 c 0,-0.2939 0.13227,-0.54373 0.39679,-0.7495 0.26453,-0.20572 0.60253,-0.30859 1.01403,-0.30861 0.41148,2e-5 0.7495,0.10294 1.01402,0.30861 0.29392,0.20577 0.44087,0.4556 0.44088,0.7495 l 0,18.64924 c -10e-6,0.29392 -0.14696,0.55845 -0.44088,0.79358 -0.29392,0.23514 -0.63193,0.35271 -1.01402,0.35271 -0.3821,0 -0.72011,-0.11757 -1.01403,-0.35271 -0.26452,-0.23513 -0.39679,-0.49966 -0.39679,-0.79358" />
    <path
       inkscape:connector-curvature="0"
       id="path4423"
       style="font-size:40px;font-style:normal;font-variant:normal;font-weight:normal;font-stretch:normal;line-height:125%;letter-spacing:0px;word-spacing:0px;fill:#fdf8ec;fill-opacity:1;stroke:none;font-family:Dosis;-inkscape-font-specification:Dosis"
       d="m 337.46599,418.31202 0,-23.2344 c 0,-0.29389 0.14696,-0.54373 0.44088,-0.7495 0.29392,-0.20571 0.61723,-0.30858 0.96994,-0.30861 0.38209,3e-5 0.7201,0.10294 1.01402,0.30861 0.29392,0.20577 0.44087,0.45561 0.44088,0.7495 l 0,8.8617 5.68736,0 c 0.29391,2e-5 0.52905,0.11759 0.70541,0.3527 0.20574,0.23515 0.30861,0.51437 0.30862,0.83767 -10e-6,0.32333 -0.10284,0.60255 -0.30862,0.83768 -0.17636,0.23515 -0.4115,0.35272 -0.70541,0.3527 l -5.68736,0 0,11.99195 c -10e-6,1.44021 0.29392,2.45423 0.88177,3.04207 0.61722,0.55845 1.69003,0.83767 3.21842,0.83767 l 1.23447,0 c 0.38209,0 0.6907,0.13227 0.92585,0.3968 0.26451,0.23514 0.39678,0.52905 0.39679,0.88176 -1e-5,0.3527 -0.13228,0.66132 -0.39679,0.92585 -0.23515,0.26452 -0.54376,0.39679 -0.92585,0.39679 l -1.23447,0 c -4.64395,0 -6.96591,-2.16032 -6.96591,-6.48094" />
    <path
       style="fill:#fdf8ec;fill-opacity:1"
       d="m 210.57719,429.37351 c 1.07499,-2.00866 5.53914,-3.61123 5.20341,-1.86797 -0.20751,1.07757 -2.90719,2.77444 -4.41402,2.77444 -1.14881,0 -1.22667,-0.0894 -0.78939,-0.90647 z m -7.00706,-11.24604 c -0.94214,-1.19773 -1.63204,-3.68288 -1.29941,-4.68075 0.30379,-0.91138 2.00512,1.13869 2.60411,3.13794 0.71629,2.39074 0.0148,3.22027 -1.3047,1.54281 z m -5.3774,-3.40775 c -1.54171,-3.39646 -0.84215,-5.28449 0.89958,-2.42784 0.92633,1.5193 1.19484,4.30391 0.41501,4.30391 -0.25465,0 -0.84622,-0.84423 -1.31459,-1.87607 z m 29.58741,0.52691 c 0,-0.72833 2.6534,-2.97061 3.87939,-3.27831 2.03181,-0.50995 2.23961,0.56417 0.43101,2.22787 -1.61684,1.48728 -4.3104,2.1437 -4.3104,1.05044 z m -33.44871,-1.40975 c -0.62827,-0.77058 -1.62125,-4.25371 -1.3033,-4.57166 0.45983,-0.45983 1.27484,0.33027 1.91084,1.85245 1.03216,2.47029 0.63582,4.24417 -0.60754,2.71921 z m 16.89525,-3.50711 c -1.75215,-0.99358 -2.08561,-2.81927 -0.73774,-4.03907 1.09749,-0.99321 2.80783,-0.91831 4.20962,0.18433 1.38822,1.09198 1.48456,2.29504 0.28024,3.49938 -0.98027,0.98026 -2.41114,1.11579 -3.75212,0.35536 z m 16.11204,-5.52422 c -2.18195,-0.8023 -3.02756,-3.63095 -1.35329,-4.52699 3.09416,-1.65594 6.55054,1.44875 4.21402,3.78525 -1.0542,1.05422 -1.61526,1.19969 -2.86073,0.74174 z m -20.62694,-1.54553 c -1.91102,-0.92234 -1.81949,-3.36607 0.15986,-4.26792 1.99605,-0.90947 4.57576,0.50257 4.57576,2.50461 0,1.97787 -2.42229,2.87981 -4.73562,1.76331 z m 14.97164,-6.10416 c -1.13711,-1.05939 -1.24023,-2.29415 -0.27241,-3.26197 1.29766,-1.29767 4.28582,-0.54946 5.12033,1.28209 1.09446,2.40209 -2.72181,3.96065 -4.84792,1.97988 z m -19.22572,-0.8977 c -2.11032,-1.65997 -1.1407,-4.02907 1.64898,-4.02907 2.97616,0 4.52373,2.76004 2.38681,4.2568 -1.33724,0.93663 -2.64971,0.86257 -4.03579,-0.22773 z m 15.44989,-5.29711 c -1.38063,-1.08601 -1.53524,-2.82771 -0.30926,-3.48384 2.17658,-1.16486 4.88471,0.0555 4.88471,2.20111 0,2.20059 -2.51294,2.90511 -4.57545,1.28273 z"
       id="path3806"
       inkscape:connector-curvature="0" />
  </g>
</svg>
